# xmcd CD database file
#
# Track frame offsets:
#	150
#	17395
#	37655
#	59422
#	79780
#	105357
#	127935
#	142435
#	159612
#	183985
#	199705
#	228095
#
# Disc length: 3380 seconds
#
# Revision: 0
# Processed by: cddbd v1.5.1PL0 Copyright (c) Steve Scherf et al.
# Submitted via: CDex 1.51
#
DISCID=8f0d320c
DTITLE=CIELA - Umbrell
DYEAR=1996
DGENRE=Blues
TTITLE0=Komischa Kagna
TTITLE1=Kluaner Dreeck
TTITLE2=Grosausläutra
TTITLE3=Gaschthaus
TTITLE4=Las mi sei
TTITLE5=Wenn Kuadreeck
TTITLE6=Unt'n ban Ziela
TTITLE7=Irgendwenn
TTITLE8=Muatter Afrika
TTITLE9=Schianere Pauz'n
TTITLE10=Ruach'nball
TTITLE11=Zuzäpf'n Liesal
EXTD=YEAR: 1996
EXTT0=
EXTT1=
EXTT2=
EXTT3=
EXTT4=
EXTT5=
EXTT6=
EXTT7=
EXTT8=
EXTT9=
EXTT10=
EXTT11=
PLAYORDER=
